:version 1.10
:name ASF
:units
  mass 1
  length 1
  angle deg
:documentation
  ASF file generated by Kaydara
:root
  axis xyz
  order  tx ty tz rx ry rz
  position 0 0 0
  orientation 0 0 0
:bonedata
  begin
    id 1
    name RightUpLegDummy
    direction -0.718183 -0.695806 0.00816078
    length 4.904
    axis 0 0 0 xyz
  end
  begin
    id 2
    name RightUpLeg
    direction 3.53989e-006 -0.995788 0.0916897
    length 17.4976
    axis -3.49089 -0.000906621 0.000287158 xyz
    dof rx ry rz
  end
  begin
    id 3
    name RightLeg
    direction 0.00371093 -0.995096 -0.0988418
    length 16.5821
    axis 3.68512 0.0193738 -0.131023 xyz
    dof rx ry rz
  end
  begin
    id 4
    name RightFoot
    direction 0.000791514 -0.46099 0.887405
    length 3.77069
    axis 4.84075e-005 -0.120479 -0.188788 xyz
    dof rx ry rz
  end
  begin
    id 5
    name RightToes
    direction 0.00124746 -0.014064 0.9999
    length 3.85082
    axis 0.00048216 0.542163 -0.142577 xyz
    dof rx ry rz
  end
  begin
    id 6
    name SpineDummy
    direction 8.36599e-015 1 5.97571e-016
    length 4.6813
    axis 0 0 0 xyz
  end
  begin
    id 7
    name Spine
    direction -4.63632e-008 0.999988 0.00495137
    length 10.1015
    axis -0.00138897 0.000121419 3.25764e-006 xyz
    dof rx ry rz
  end
  begin
    id 8
    name Spine1
    direction 0 0 0
    length 0
    axis -0.00138896 0.000121452 2.39764e-006 xyz
    dof rx ry rz
  end
  begin
    id 9
    name HEadDummy
    direction -3.91456e-008 0.999999 0.00127422
    length 3.43865
    axis -0.00138896 0.000121452 2.39764e-006 xyz
  end
  begin
    id 10
    name HEad
    direction -0.0222688 0.980941 0.193023
    length 5.12695
    axis -0.00138895 0.000121452 2.39764e-006 xyz
    dof rx ry rz
  end
  begin
    id 11
    name LeftShoulder1Dummy
    direction 0.998891 -0.0402508 -0.0244456
    length 3.5433
    axis -0.00138896 0.000121452 2.39764e-006 xyz
  end
  begin
    id 12
    name LeftShoulder1
    direction 0.99951 -0.000327743 0.0313091
    length 4.05031
    axis -0.00138896 0.000121452 2.39764e-006 xyz
    dof rx ry rz
  end
  begin
    id 13
    name LeftArm
    direction 0.998561 -0.00100054 -0.0536182
    length 10.3537
    axis -23.1894 0.134784 0.96751 xyz
    dof rx ry rz
  end
  begin
    id 14
    name LeftForeArm
    direction 0.998903 0.00866434 0.046012
    length 8.70632
    axis -9.91835 -0.06569 -0.177792 xyz
    dof rx ry rz
  end
  begin
    id 15
    name LeftHand
    direction 0.992938 -0.0411636 0.11126
    length 5.32135
    axis -0.00960227 -0.00340091 0.185174 xyz
    dof rx ry rz
  end
  begin
    id 16
    name RightShoulderDummy
    direction -0.998891 -0.0402509 -0.0244414
    length 3.5433
    axis -0.00138896 0.000121452 2.39764e-006 xyz
  end
  begin
    id 17
    name RightShoulder
    direction -0.99951 -0.000327827 0.0313133
    length 4.05031
    axis 0.215806 0.000203644 -0.00680151 xyz
    dof rx ry rz
  end
  begin
    id 18
    name RightArm
    direction -0.998573 -0.000999583 -0.053403
    length 10.3947
    axis -23.2009 -0.134239 -0.9641 xyz
    dof rx ry rz
  end
  begin
    id 19
    name RightForeArm
    direction -0.998898 0.00868026 0.0461306
    length 8.68355
    axis -9.92322 0.0658061 0.178869 xyz
    dof rx ry rz
  end
  begin
    id 20
    name RightHand
    direction -0.992843 -0.0414603 0.112003
    length 5.28593
    axis -0.00960634 0.00330671 -0.185226 xyz
    dof rx ry rz
  end
  begin
    id 21
    name LeftUpLegDummy
    direction 0.718183 -0.695806 0.00816078
    length 4.904
    axis 0 0 0 xyz
  end
  begin
    id 22
    name LeftUpLeg
    direction -6.8115e-006 -0.995793 0.0916336
    length 17.4976
    axis -3.48766 0.00143441 -0.000523914 xyz
    dof rx ry rz
  end
  begin
    id 23
    name LeftLeg
    direction -0.00601357 -0.995091 -0.0987824
    length 16.5821
    axis 3.68177 -0.00654038 -0.00028478 xyz
    dof rx ry rz
  end
  begin
    id 24
    name LeftFoot
    direction -0.00417578 -0.460984 0.887399
    length 3.77069
    axis 1.87232e-006 4.66002e-005 -8.1837e-006 xyz
    dof rx ry rz
  end
  begin
    id 25
    name LeftToes
    direction 0.00818058 -0.00485161 0.999955
    length 3.85048
    axis 1.06246e-005 4.65855e-005 -8.18502e-006 xyz
    dof rx ry rz
  end
:hierarchy
  begin
    root RightUpLegDummy SpineDummy LeftUpLegDummy
    RightUpLegDummy RightUpLeg
    RightUpLeg RightLeg
    RightLeg RightFoot
    RightFoot RightToes
    SpineDummy Spine
    Spine Spine1
    Spine1 HEadDummy LeftShoulder1Dummy RightShoulderDummy
    HEadDummy HEad
    LeftShoulder1Dummy LeftShoulder1
    LeftShoulder1 LeftArm
    LeftArm LeftForeArm
    LeftForeArm LeftHand
    RightShoulderDummy RightShoulder
    RightShoulder RightArm
    RightArm RightForeArm
    RightForeArm RightHand
    LeftUpLegDummy LeftUpLeg
    LeftUpLeg LeftLeg
    LeftLeg LeftFoot
    LeftFoot LeftToes
  end

:SAMPLES-PER-SECOND 24
:FULLY-SPECIFIED
:DEGREES
1
root  -2.40422 41.2237 31.8777 -178.087 56.986 -179.258
RightUpLeg  2.63124 -12.1428 -13.0133
RightLeg  11.9507 6.04297 2.95087
RightFoot  6.94883 -2.74889 17.2469
RightToes  -1.46203e-006 3.27826e-006 1.63871e-007
Spine  3.47765 2.50283 0.991265
Spine1  11.99 3.27301 -2.20614
HEad  -11.6203 39.2109 -17.8669
LeftShoulder1  1.74566 -2.91753 -20.7777
LeftArm  -5.67272 14.5513 -34.2832
LeftForeArm  103.178 -79.5587 -104.067
LeftHand  -0.0759152 4.76483 10.84
RightShoulder  2.45431 4.5664 24.3091
RightArm  9.20643 -13.2471 39.7198
RightForeArm  131.206 63.3369 156.531
RightHand  0.2459 -10.2363 -6.88591
LeftUpLeg  -11.3645 16.7461 12.3335
LeftLeg  15.6057 1.08162 -0.375184
LeftFoot  9.47693 1.55261 -8.70886
LeftToes  1.24767e-006 1.47042e-008 1.32732e-009
2
root  -2.43219 41.6225 32.0507 -178.846 58.2947 -179.794
RightUpLeg  1.85652 -15.3756 -14.205
RightLeg  13.5882 7.4456 3.07673
RightFoot  10.2545 -3.14025 16.7578
RightToes  -1.46203e-006 3.27826e-006 1.63871e-007
Spine  3.01395 2.91044 2.02513
Spine1  14.2535 4.39686 -4.27214
HEad  -14.7443 38.3856 -18.575
LeftShoulder1  1.77677 -2.97356 -21.0382
LeftArm  -4.80924 20.506 -38.9765
LeftForeArm  132.885 -76.113 -133.712
LeftHand  -0.0217444 5.3281 12.0607
RightShoulder  2.30953 4.29962 23.4473
RightArm  11.3249 -17.0788 40.4674
RightForeArm  145.696 56.8288 162.713
RightHand  -0.0680496 -7.20035 2.28634
LeftUpLeg  -10.0118 20.9466 10.0261
LeftLeg  20.7418 -6.60981 -2.37747
LeftFoot  13.8637 2.41198 -11.1362
LeftToes  1.24767e-006 1.47042e-008 1.32732e-009
3
root  -2.51402 41.473 32.3439 179.428 58.6234 179.337
RightUpLeg  1.89087 -17.8475 -15.7676
RightLeg  17.1198 6.19535 1.96054
RightFoot  10.1837 -2.43184 13.1141
RightToes  -1.46203e-006 3.27826e-006 1.63871e-007
Spine  4.05338 2.85057 1.79618
Spine1  14.9594 4.63045 -5.56945
HEad  -15.6175 38.4738 -19.0949
LeftShoulder1  1.77957 -3.04509 -20.7645
LeftArm  -5.00816 22.9784 -41.8025
LeftForeArm  145.557 -71.0346 -148.395
LeftHand  0.0491573 6.04282 12.042
RightShoulder  2.16773 4.01593 22.635
RightArm  12.0627 -15.4133 41.5568
RightForeArm  149.578 52.076 165.577
RightHand  -0.0718493 -6.22558 4.56218
LeftUpLeg  -7.60758 19.371 9.10495
LeftLeg  21.8272 -6.81885 -2.66448
LeftFoot  12.7175 2.2384 -10.8469
LeftToes  1.24767e-006 1.47042e-008 1.32732e-009
4
root  -2.60455 40.6468 32.6436 179.721 58.0766 -179.938
RightUpLeg  1.5341 -16.2622 -16.5895
RightLeg  21.3138 4.24615 1.62699
RightFoot  6.11723 -2.04579 13.6685
RightToes  -1.46203e-006 3.27826e-006 1.63871e-007
Spine  5.16692 2.62103 2.29535
Spine1  13.6682 4.3968 -5.79918
HEad  -13.75 38.8102 -18.4872
LeftShoulder1  1.77163 -3.06223 -20.5597
LeftArm  -6.30701 21.4072 -41.4448
LeftForeArm  150.188 -66.9273 -154.772
LeftHand  0.0407302 6.22029 8.74137
RightShoulder  2.13293 3.96968 22.3302
RightArm  9.78947 -11.1084 42.4069
RightForeArm  144.083 49.534 166.368
RightHand  -0.0941228 -7.56891 2.59325
LeftUpLeg  -7.06821 16.1713 8.95855
LeftLeg  22.7738 -3.03745 -1.04234
LeftFoot  4.43151 1.19446 -8.79145
LeftToes  1.24767e-006 1.47042e-008 1.32732e-009
5
root  -2.71342 39.2266 33.143 -179.461 56.8392 -179.312
RightUpLeg  -0.0289724 -14.7392 -16.8932
RightLeg  27.1055 6.49 3.4167
RightFoot  -4.05231 -1.14363 17.8068
RightToes  -1.46203e-006 3.27826e-006 1.63871e-007
Spine  5.98351 2.43545 2.11881
Spine1  12.3618 3.97384 -5.56412
HEad  -12.205 38.2343 -17.0059
LeftShoulder1  1.715 -2.95416 -20.1033
LeftArm  -9.04702 14.6471 -38.7563
LeftForeArm  152.604 -64.335 -157.829
LeftHand  0.00987181 5.86607 7.89219
RightShoulder  2.13515 4.01945 22.1595
RightArm  3.76037 -3.66515 43.3812
RightForeArm  138.971 49.8561 165.961
RightHand  -0.0323897 -7.32557 -0.542684
LeftUpLeg  -10.9772 14.5763 9.11196
LeftLeg  29.4103 -0.511011 0.0426942
LeftFoot  -5.84197 0.401804 -7.70342
LeftToes  1.24767e-006 1.47042e-008 1.32732e-009
6
root  -2.92833 37.6902 33.8024 -179.709 55.8236 -179.087
RightUpLeg  -1.85534 -14.955 -16.851
RightLeg  33.818 8.19281 5.63763
RightFoot  -15.3524 0.491297 17.3736
RightToes  -1.46203e-006 3.27826e-006 1.63871e-007
Spine  6.46919 2.29435 1.36216
Spine1  13.8617 3.43282 -4.59494
HEad  -13.7705 37.0052 -17.7925
LeftShoulder1  1.60011 -2.60888 -19.6953
LeftArm  -14.3698 3.246 -35.2004
LeftForeArm  148.937 -68.2159 -153.6
LeftHand  0.028706 5.89535 10.458
RightShoulder  2.13151 3.99585 22.2042
RightArm  -2.70106 9.9204 44.9431
RightForeArm  135.298 57.0346 161.928
RightHand  -0.00437066 -6.3167 -3.50492
LeftUpLeg  -16.339 14.9364 9.84268
LeftLeg  39.2843 -0.626019 -0.167604
LeftFoot  -12.6054 -0.00698672 -7.47814
LeftToes  1.24767e-006 1.47042e-008 1.32732e-009
7
root  -3.09856 36.9991 34.1318 178.987 56.2626 -178.583
RightUpLeg  -0.991402 -15.6167 -16.9491
RightLeg  35.823 7.85493 5.80718
RightFoot  -20.4225 1.02205 14.5517
RightToes  -1.46203e-006 3.27826e-006 1.63871e-007
Spine  6.14751 2.30301 2.3474
Spine1  17.3557 3.47256 -4.0674
HEad  -13.1683 36.5517 -18.9161
LeftShoulder1  1.48002 -2.34448 -18.7573
LeftArm  -17.0521 -6.82246 -35.1717
LeftForeArm  113.416 -79.3287 -111.024
LeftHand  0.0328822 5.69692 16.8821
RightShoulder  2.22938 4.24103 22.5888
RightArm  -2.77638 23.3239 50.2407
RightForeArm  128.623 69.7011 148.267
RightHand  0.106867 -7.13474 -8.95443
LeftUpLeg  -16.8819 14.9326 11.0135
LeftLeg  43.5616 -0.520251 -0.108907
LeftFoot  -15.0093 -0.167073 -8.01256
LeftToes  1.24767e-006 1.47042e-008 1.32732e-009
8
root  -3.03579 37.7102 33.9624 177.182 57.8717 -178.712
RightUpLeg  2.14342 -14.3292 -17.3631
RightLeg  31.5241 8.53793 5.3796
RightFoot  -16.2849 0.550952 15.7002
RightToes  -1.46203e-006 3.27826e-006 1.63871e-007
Spine  5.29001 2.48456 3.96228
Spine1  19.4253 4.04802 -4.62482
HEad  -6.58215 37.5167 -16.5165
LeftShoulder1  1.47476 -2.60607 -17.4956
LeftArm  -14.7672 -7.83382 -39.0132
LeftForeArm  55.7462 -76.9829 -45.7047
LeftHand  0.21558 6.44786 23.8262
RightShoulder  2.41728 4.73994 23.1555
RightArm  3.19438 27.234 58.0485
RightForeArm  115.961 76.4881 128.971
RightHand  0.421541 -8.68375 -15.8149
LeftUpLeg  -12.5204 13.8313 11.3091
LeftLeg  39.7439 0.413618 0.751453
LeftFoot  -12.0864 0.0126404 -9.44357
LeftToes  1.24767e-006 1.47042e-008 1.32732e-009
9
root  -2.85864 39.2985 33.5634 176.034 59.1865 -179.97
RightUpLeg  3.73878 -12.1389 -17.4146
RightLeg  25.491 7.53984 3.71474
RightFoot  -4.39449 -1.13629 18.0308
RightToes  -1.46203e-006 3.27826e-006 1.63871e-007
Spine  4.09406 2.54054 3.71499
Spine1  19.0572 4.07867 -4.4117
HEad  0.666295 38.9338 -13.019
LeftShoulder1  1.62699 -3.03465 -18.2948
LeftArm  -11.9444 0.0305673 -40.7677
LeftForeArm  72.8604 -78.9654 -61.4361
LeftHand  0.083135 5.81038 22.4852
RightShoulder  2.48119 4.85977 23.5242
RightArm  9.93871 22.8803 62.1657
RightForeArm  125.353 74.1563 138.016
RightHand  0.174314 -6.79259 -14.6802
LeftUpLeg  -8.33597 13.4364 10.6191
LeftLeg  32.1373 0.016531 0.393822
LeftFoot  -2.42521 0.906753 -11.3711
LeftToes  1.24767e-006 1.47042e-008 1.32732e-009
10
root  -2.74497 40.7326 33.2019 175.687 59.3128 178.068
RightUpLeg  3.18258 -12.2239 -17.7071
RightLeg  21.0427 4.22687 1.59886
RightFoot  6.70208 -2.57465 16.5072
RightToes  -1.46203e-006 3.27826e-006 1.63871e-007
Spine  2.7368 2.2872 2.37352
Spine1  17.4474 3.6725 -3.90464
HEad  4.64853 39.5209 -11.3809
LeftShoulder1  1.75628 -3.06108 -20.3183
LeftArm  -9.37898 8.56912 -38.6833
LeftForeArm  134.562 -77.924 -125.908
LeftHand  -0.0764565 4.92981 15.1949
RightShoulder  2.29024 4.40005 22.7982
RightArm  14.3132 18.2321 61.9393
RightForeArm  138.835 66.5565 153.747
RightHand  -0.0675626 -4.2892 -4.67281
LeftUpLeg  -7.31716 15.6783 10.036
LeftLeg  26.4684 -4.44757 -2.03181
LeftFoot  8.91442 2.57339 -14.5625
LeftToes  1.24767e-006 1.47042e-008 1.32732e-009
